<?xml version="1.0" encoding="UTF-8"?>
<svg width="474px" height="474px" viewBox="0 0 474 474" version="1.1" xmlns="http://www.w3.org/2000/svg" xmlns:xlink="http://www.w3.org/1999/xlink">
    <!-- Generator: Sketch 64 (93537) - https://sketch.com -->
    <title>Group</title>
    <desc>Created with Sketch.</desc>
    <g id="Page-1" stroke="none" stroke-width="1" fill="none" fill-rule="evenodd">
        <g id="Button-Fill-Black" transform="translate(-14.000000, -11.000000)" fill="#591630">
            <g id="Group" transform="translate(14.525100, 11.154600)">
                <polygon id="Fill-1" points="115.4261 215.5134 115.4261 257.5844 146.8761 236.5494"></polygon>
                <polygon id="Fill-2" points="223.9773 184.9758 223.9773 126.3478 125.4903 192.0008 169.4843 221.4308"></polygon>
                <polygon id="Fill-3" points="347.6058 192.0007 249.1178 126.3477 249.1178 184.9757 303.6148 221.4307"></polygon>
                <polygon id="Fill-4" points="125.49 281.0974 223.977 346.7504 223.977 288.1214 169.485 251.6754"></polygon>
                <polygon id="Fill-5" points="249.1175 288.1218 249.1175 346.7508 347.6055 281.0978 303.6145 251.6758"></polygon>
                <polygon id="Fill-6" points="236.5462 206.8117 192.0892 236.5487 236.5462 266.2867 281.0062 236.5487"></polygon>
                <path d="M382.806,281.113 C382.806,281.667 382.767,282.213 382.694,282.759 C382.667,282.936 382.624,283.121 382.594,283.298 C382.529,283.652 382.467,284.006 382.374,284.352 C382.321,284.56 382.244,284.759 382.178,284.96 C382.078,285.267 381.979,285.576 381.856,285.884 C381.771,286.091 381.666,286.291 381.575,286.491 C381.44,286.776 381.301,287.052 381.148,287.33 C381.035,287.522 380.909,287.715 380.789,287.907 C380.62,288.169 380.448,288.423 380.259,288.669 C380.12,288.861 379.978,289.038 379.825,289.215 C379.628,289.445 379.42,289.676 379.201,289.891 C379.035,290.061 378.873,290.23 378.701,290.384 C378.474,290.592 378.232,290.792 377.986,290.984 C377.8,291.131 377.616,291.277 377.419,291.415 C377.347,291.462 377.282,291.523 377.208,291.569 L243.521,380.697 C241.409,382.105 238.981,382.812 236.546,382.812 C234.119,382.812 231.687,382.105 229.575,380.697 L95.884,291.569 C95.814,291.523 95.749,291.462 95.68,291.415 C95.483,291.277 95.295,291.131 95.11,290.984 C94.864,290.792 94.625,290.592 94.398,290.384 C94.225,290.23 94.06,290.061 93.894,289.891 C93.675,289.676 93.472,289.445 93.267,289.215 C93.121,289.038 92.975,288.861 92.837,288.669 C92.652,288.423 92.475,288.169 92.309,287.907 C92.182,287.715 92.063,287.522 91.948,287.33 C91.794,287.052 91.656,286.776 91.521,286.491 C91.425,286.291 91.328,286.091 91.24,285.884 C91.117,285.576 91.013,285.267 90.917,284.96 C90.848,284.759 90.779,284.56 90.721,284.352 C90.628,284.006 90.567,283.652 90.501,283.298 C90.471,283.121 90.425,282.936 90.401,282.759 C90.328,282.213 90.286,281.667 90.286,281.113 L90.286,191.985 C90.286,191.431 90.328,190.885 90.401,190.346 C90.425,190.162 90.471,189.985 90.501,189.8 C90.567,189.446 90.628,189.092 90.721,188.746 C90.779,188.538 90.848,188.338 90.917,188.138 C91.013,187.83 91.117,187.523 91.24,187.222 C91.328,187.015 91.425,186.807 91.521,186.607 C91.656,186.322 91.794,186.045 91.948,185.776 C92.063,185.576 92.182,185.384 92.309,185.191 C92.475,184.93 92.652,184.676 92.837,184.429 C92.975,184.245 93.121,184.06 93.267,183.884 C93.472,183.653 93.675,183.422 93.894,183.206 C94.06,183.037 94.225,182.868 94.398,182.714 C94.625,182.506 94.864,182.306 95.11,182.113 C95.295,181.967 95.483,181.821 95.68,181.683 C95.749,181.636 95.814,181.575 95.884,181.529 L229.575,92.401 C233.799,89.585 239.296,89.585 243.521,92.401 L377.208,181.529 C377.282,181.575 377.347,181.636 377.419,181.683 C377.616,181.821 377.8,181.967 377.986,182.113 C378.232,182.306 378.474,182.506 378.701,182.714 C378.873,182.868 379.035,183.037 379.201,183.206 C379.42,183.422 379.628,183.653 379.825,183.884 C379.978,184.06 380.12,184.245 380.259,184.429 C380.448,184.676 380.62,184.93 380.789,185.191 C380.909,185.384 381.035,185.576 381.148,185.776 C381.301,186.045 381.44,186.322 381.575,186.607 C381.666,186.807 381.771,187.015 381.856,187.222 C381.979,187.523 382.078,187.83 382.178,188.138 C382.244,188.338 382.321,188.538 382.374,188.746 C382.467,189.092 382.529,189.446 382.594,189.8 C382.624,189.985 382.667,190.162 382.694,190.346 C382.767,190.885 382.806,191.431 382.806,191.985 L382.806,281.113 Z M236.546,0 C105.909,0 0,105.905 0,236.549 C0,367.194 105.909,473.094 236.546,473.094 C367.191,473.094 473.095,367.194 473.095,236.549 C473.095,105.905 367.191,0 236.546,0 L236.546,0 Z" id="Fill-7"></path>
                <polygon id="Fill-9" points="357.6692 257.5847 357.6692 215.5137 326.2242 236.5487"></polygon>
            </g>
        </g>
    </g>
</svg>