<?xml version="1.0" encoding="UTF-8"?>
<svg width="100px" height="100px" viewBox="0 0 100 100" version="1.1" xmlns="http://www.w3.org/2000/svg" xmlns:xlink="http://www.w3.org/1999/xlink">
    <!-- Generator: Sketch 64 (93537) - https://sketch.com -->
    <title>devto</title>
    <desc>Created with Sketch.</desc>
    <g id="Page-1" stroke="none" stroke-width="1" fill="none" fill-rule="evenodd">
        <g id="devto" fill="#591630" fill-rule="nonzero">
            <path d="M26.8125,39.3504464 C25.9464286,38.703125 25.078125,38.3794643 24.2120536,38.3794643 L20.3191964,38.3794643 L20.3191964,61.6986607 L24.2142857,61.6986607 C25.0803571,61.6986607 25.9486607,61.375 26.8147321,60.7276786 C27.6808036,60.0803571 28.1138393,59.109375 28.1138393,57.8125 L28.1138393,42.265625 C28.1116071,40.9709821 27.6763393,39.9977679 26.8125,39.3504464 L26.8125,39.3504464 Z M90.2008929,0 L9.79910714,0 C4.39732143,0 0.0133928571,4.37276786 0,9.77678571 L0,90.2232143 C0.0133928571,95.6272321 4.39732143,100 9.79910714,100 L90.2008929,100 C95.6049107,100 99.9866071,95.6272321 100,90.2232143 L100,9.77678571 C99.9866071,4.37276786 95.6026786,0 90.2008929,0 L90.2008929,0 Z M34.4196429,57.8549107 C34.4196429,62.0535714 31.828125,68.4151786 23.625,68.4018068 L13.2678571,68.4018068 L13.2678571,31.46875 L23.84375,31.46875 C31.7544643,31.46875 34.4151786,37.8214286 34.4174107,42.0223214 L34.4196429,57.8549107 Z M56.8928571,38.0647321 L45,38.0647321 L45,46.640625 L52.2700893,46.640625 L52.2700893,53.2410714 L45,53.2410714 L45,61.8147321 L56.8950893,61.8147321 L56.8950893,68.4151786 L43.015625,68.4151786 C40.5245536,68.4799107 38.453125,66.5111607 38.390625,64.0200893 L38.390625,36.09375 C38.3303571,33.6049107 40.3013393,31.5379464 42.7901786,31.4754464 L56.8950893,31.4754464 L56.8928571,38.0647321 Z M80.0267857,63.7991071 C77.0803571,70.6629464 71.8013393,69.296875 69.4375,63.7991071 L60.8370536,31.4776786 L68.1071429,31.4776786 L74.7388393,56.8616071 L81.3392857,31.4776786 L88.6116071,31.4776786 L80.0267857,63.7991071 L80.0267857,63.7991071 Z" id="Shape"></path>
        </g>
    </g>
</svg>