<?xml version="1.0" encoding="UTF-8"?>
<svg width="100px" height="100px" viewBox="0 0 100 100" version="1.1" xmlns="http://www.w3.org/2000/svg" xmlns:xlink="http://www.w3.org/1999/xlink">
    <!-- Generator: Sketch 64 (93537) - https://sketch.com -->
    <title>linkedin</title>
    <desc>Created with Sketch.</desc>
    <g id="Page-1" stroke="none" stroke-width="1" fill="none" fill-rule="evenodd">
        <g id="linkedin" fill="#591630" fill-rule="nonzero">
            <path d="M50,0 C22.3875,0 0,22.3875 0,50 C0,77.6125 22.3875,100 50,100 C77.6125,100 100,77.6125 100,50 C100,22.3875 77.6125,0 50,0 Z M41.6666667,66.6666667 L33.3333333,66.6666667 L33.3333333,41.6666667 L41.6666667,41.6666667 L41.6666667,66.6666667 Z M37.5,37.9541667 C34.9708333,37.9541667 32.9166667,35.8875 32.9166667,33.3333333 C32.9166667,30.7833333 34.9666667,28.7125 37.5,28.7125 C40.0333333,28.7125 42.0833333,30.7833333 42.0833333,33.3333333 C42.0833333,35.8875 40.0291667,37.9541667 37.5,37.9541667 Z M70.8333333,66.6666667 L62.5083333,66.6666667 L62.5083333,54.7458333 C62.5083333,46.9083333 54.1666667,47.5708333 54.1666667,54.7458333 L54.1666667,66.6666667 L45.8333333,66.6666667 L45.8333333,41.6666667 L54.1666667,41.6666667 L54.1666667,46.2208333 C57.8,39.4875 70.8333333,38.9875 70.8333333,52.6708333 L70.8333333,66.6666667 Z" id="Shape"></path>
        </g>
    </g>
</svg>