<?xml version="1.0" encoding="UTF-8"?>
<svg width="100px" height="98px" viewBox="0 0 100 98" version="1.1" xmlns="http://www.w3.org/2000/svg" xmlns:xlink="http://www.w3.org/1999/xlink">
    <!-- Generator: Sketch 64 (93537) - https://sketch.com -->
    <title>github</title>
    <desc>Created with Sketch.</desc>
    <g id="Page-1" stroke="none" stroke-width="1" fill="none" fill-rule="evenodd">
        <g id="github" fill="#591630" fill-rule="nonzero">
            <path d="M50,0 C22.3916667,0 0,22.4943938 0,50.2387355 C0,72.4358834 14.325,91.2670361 34.1958333,97.9111088 C36.6916667,98.3758171 37.5,96.8184163 37.5,95.495463 L37.5,86.1426851 C23.5916667,89.1821286 20.6958333,80.2145143 20.6958333,80.2145143 C18.4208333,74.4077538 15.1416667,72.8629127 15.1416667,72.8629127 C10.6041667,69.7439245 15.4875,69.8109095 15.4875,69.8109095 C20.5083333,70.1625806 23.15,74.9896858 23.15,74.9896858 C27.6083333,82.6678392 34.8458333,80.4489617 37.7,79.1636874 C38.1458333,75.9191024 39.4416667,73.7002249 40.875,72.4484431 C29.7708333,71.1715419 18.0958333,66.8635703 18.0958333,47.6179481 C18.0958333,42.1293662 20.05,37.6497457 23.2458333,34.1330342 C22.7291667,32.8645061 21.0166667,27.7527148 23.7333333,20.8365155 C23.7333333,20.8365155 27.9333333,19.4884428 37.4875,25.9859859 C41.475,24.8723606 45.75,24.315548 50,24.2946152 C54.25,24.315548 58.5291667,24.8723606 62.525,25.9859859 C72.0708333,19.4884428 76.2625,20.8365155 76.2625,20.8365155 C78.9833333,27.7569013 77.2708333,32.8686927 76.7541667,34.1330342 C79.9625,37.6497457 81.9,42.1335528 81.9,47.6179481 C81.9,66.9138091 70.2041667,71.1631688 59.0708333,72.4065775 C60.8625,73.9639783 62.5,77.020168 62.5,81.7091167 L62.5,95.495463 C62.5,96.830976 63.3,98.4009365 65.8375,97.9069223 C85.6916667,91.2544764 100,72.4275103 100,50.2387355 C100,22.4943938 77.6125,0 50,0 Z" id="Path"></path>
        </g>
    </g>
</svg>