<?xml version="1.0" encoding="UTF-8"?>
<svg width="100px" height="100px" viewBox="0 0 100 100" version="1.1" xmlns="http://www.w3.org/2000/svg" xmlns:xlink="http://www.w3.org/1999/xlink">
    <!-- Generator: Sketch 64 (93537) - https://sketch.com -->
    <title>twitter</title>
    <desc>Created with Sketch.</desc>
    <g id="Page-1" stroke="none" stroke-width="1" fill="none" fill-rule="evenodd">
        <g id="twitter" fill="#591630" fill-rule="nonzero">
            <path d="M50,0 C22.3875,0 0,22.3875 0,50 C0,77.6125 22.3875,100 50,100 C77.6125,100 100,77.6125 100,50 C100,22.3875 77.6125,0 50,0 Z M75.275,40.1875 C76.0375,57.0208333 63.4833333,75.7875 41.2583333,75.7875 C34.5,75.7875 28.2125,73.8041667 22.9166667,70.4083333 C29.2666667,71.1583333 35.6041667,69.3916667 40.6333333,65.4541667 C35.4,65.3583333 30.9791667,61.8958333 29.45,57.1416667 C31.3291667,57.5 33.1791667,57.3958333 34.8583333,56.9375 C29.1041667,55.7791667 25.1291667,50.5958333 25.2583333,45.05 C26.875,45.9458333 28.7166667,46.4833333 30.6791667,46.5458333 C25.35,42.9833333 23.8416667,35.9458333 26.975,30.5666667 C32.875,37.8083333 41.6958333,42.5708333 51.6416667,43.0708333 C49.8958333,35.5875 55.575,28.375 63.3041667,28.375 C66.7416667,28.375 69.8541667,29.8291667 72.0375,32.1541667 C74.7625,31.6208333 77.3291667,30.6208333 79.6375,29.25 C78.7416667,32.0458333 76.8458333,34.3875 74.375,35.8708333 C76.7958333,35.5791667 79.1041667,34.9375 81.2458333,33.9833333 C79.6458333,36.3916667 77.6208333,38.5 75.275,40.1875 L75.275,40.1875 Z" id="Shape"></path>
        </g>
    </g>
</svg>